<svg id="Layer_1" data-name="Layer 1" xmlns="http://www.w3.org/2000/svg" viewBox="0 0 55.98 82.67"><title>blush</title><path d="M51.95,16.49c0-4.6-10.85-6.69-20.92-6.69S10.1,11.89,10.1,16.49s10.85,6.7,20.93,6.7S51.95,21.09,51.95,16.49Zm-39.34,0c0-1.42,6.5-4.18,18.42-4.18s18.41,2.76,18.41,4.18S42.94,20.67,31,20.67,12.61,17.91,12.61,16.49Z" transform="translate(-3.08 -5.1)"/><path d="M43.53,34.8l0,0a5.73,5.73,0,0,1-.11-8C52.77,25,59,21.14,59,16.48,59,10,47,5.1,31,5.1S3.08,10,3.08,16.48c0,4.61,6.09,8.41,15.33,10.23a5.76,5.76,0,0,1-.07,8.05,1.17,1.17,0,0,0-.23.34A27.94,27.94,0,1,0,43.53,34.8ZM5.59,16.49C5.59,12.29,16,7.61,31,7.61s25.43,4.68,25.43,8.87S46,25.36,31,25.36,5.59,20.68,5.59,16.49ZM21.77,27.27a69.5,69.5,0,0,0,9.25.6,70.12,70.12,0,0,0,9-.57,8.2,8.2,0,0,0-.73,3.39,8.3,8.3,0,0,0,.4,2.54,27.87,27.87,0,0,0-17.65.16A8.3,8.3,0,0,0,21.77,27.27Zm9.34,58A25.43,25.43,0,1,1,56.55,59.83,25.46,25.46,0,0,1,31.11,85.26Z" transform="translate(-3.08 -5.1)"/><path d="M31.11,37.08A22.75,22.75,0,1,0,53.87,59.83,22.78,22.78,0,0,0,31.11,37.08Zm0,43A20.22,20.22,0,1,1,51.33,59.83,20.22,20.22,0,0,1,31.11,80Z" transform="translate(-3.08 -5.1)"/><line x1="21.9" y1="65.21" x2="37.4" y2="49.71"/><path d="M25,71.41a1.1,1.1,0,0,1-.78-1.88L39.7,54a1.1,1.1,0,1,1,1.56,1.56l-15.5,15.5A1.1,1.1,0,0,1,25,71.41Z" transform="translate(-3.08 -5.1)"/><line x1="25.84" y1="69.15" x2="41.34" y2="53.65"/><path d="M28.92,75.35a1.1,1.1,0,0,1-.78-1.88L43.64,58a1.1,1.1,0,1,1,1.56,1.56L29.69,75A1.1,1.1,0,0,1,28.92,75.35Z" transform="translate(-3.08 -5.1)"/></svg>