<svg id="Layer_1" data-name="Layer 1" xmlns="http://www.w3.org/2000/svg" viewBox="0 0 75.67 75.67"><title>dolla</title><path d="M61.36,57.53c0-4.56-4.38-8.32-10-8.85V36.41a8.79,8.79,0,0,1,4.87,2.16,1.9,1.9,0,0,0,2.34.11,1.23,1.23,0,0,0,.13-1.95,12.48,12.48,0,0,0-7.35-3.11V30.81a1.68,1.68,0,0,0-3.31,0v2.89c-5.33.73-9.4,4.38-9.4,8.77s4.07,8,9.4,8.77V63.5c-3.49-.67-6.09-3.09-6.09-6a1.68,1.68,0,0,0-3.31,0c0,4.39,4.07,8,9.4,8.77v2.89a1.68,1.68,0,0,0,3.31,0V66.38C57,65.85,61.36,62.09,61.36,57.53ZM42,42.47c0-2.88,2.6-5.29,6.09-6V48.43C44.55,47.76,42,45.34,42,42.47Zm9.4,21.13V51.47C55.15,52,58,54.49,58,57.53S55.15,63.1,51.35,63.6Z" transform="translate(-12.17 -12.17)"/><path d="M86.33,51.5H79.14a1.5,1.5,0,0,1,0-3h7.19A1.5,1.5,0,0,1,86.33,51.5Z" transform="translate(-12.17 -12.17)"/><path d="M20.86,51.5H13.67a1.5,1.5,0,0,1,0-3h7.19A1.5,1.5,0,0,1,20.86,51.5Z" transform="translate(-12.17 -12.17)"/><path d="M70.61,30.89a1.5,1.5,0,0,1-1.06-2.56l5.08-5.08a1.5,1.5,0,1,1,2.12,2.12l-5.08,5.09A1.49,1.49,0,0,1,70.61,30.89Z" transform="translate(-12.17 -12.17)"/><path d="M24.31,77.19a1.5,1.5,0,0,1-1.06-2.56l5.09-5.08a1.5,1.5,0,1,1,2.12,2.12l-5.09,5.08A1.49,1.49,0,0,1,24.31,77.19Z" transform="translate(-12.17 -12.17)"/><path d="M75.69,78.71a1.5,1.5,0,0,1-1.06-.44l-5.08-5.08a1.5,1.5,0,0,1,2.12-2.12l5.08,5.08A1.5,1.5,0,0,1,75.69,78.71Z" transform="translate(-12.17 -12.17)"/><path d="M29.39,32.41A1.5,1.5,0,0,1,28.33,32l-5.09-5.08a1.5,1.5,0,0,1,2.12-2.12l5.09,5.08A1.5,1.5,0,0,1,29.39,32.41Z" transform="translate(-12.17 -12.17)"/><path d="M48.5,86.33V79.14a1.5,1.5,0,0,1,3,0v7.19A1.5,1.5,0,0,1,48.5,86.33Z" transform="translate(-12.17 -12.17)"/><path d="M48.5,20.86V13.67a1.5,1.5,0,0,1,3,0v7.19A1.5,1.5,0,0,1,48.5,20.86Z" transform="translate(-12.17 -12.17)"/></svg>