<svg id="Layer_1" data-name="Layer 1" xmlns="http://www.w3.org/2000/svg" viewBox="0 0 27.81 79.82"><defs><style>.cls-1{fill:none;}</style></defs><title>playfield</title><path fill="white" d="M41.34,56.17a1.26,1.26,0,0,0-1.24-1.27l-6.2-.08a1.26,1.26,0,0,0-1.27,1.24l-0.33,27.3a1.33,1.33,0,0,0,1.23,1.29l6.2,0.08A1.26,1.26,0,0,0,41,83.5Zm-6.51,26,0.34-24.78,3.69,0L38.51,82.23Z" transform="translate(-19.08 -7.24)"/><line class="cls-1" x1="6.67" y1="48.76" x2="2.98" y2="48.76"/><path fill="white" d="M28.79,47.06l0-5.69L27,11.22l-0.5-.36A6.93,6.93,0,0,0,25,9.93V8.38a1.26,1.26,0,0,0-2.51,0V10a7.33,7.33,0,0,0-1.47.86l-0.5.36L19.08,41.53l0,5.26a0.58,0.58,0,0,0,0,.06V48a0.61,0.61,0,0,0,.5.6V85.79a1.27,1.27,0,0,0,1.25,1.26H27a1.27,1.27,0,0,0,1.25-1.26V48.62a0.61,0.61,0,0,0,.5-0.6v-1h0ZM23,12.63a1.28,1.28,0,0,1,.57-0.19,1.52,1.52,0,0,1,.95.22l1.7,27.52H22.93V42.7h3.33v3.55H21.61l0-4.67Zm2.72,71.91H22V76h3.69v8.58ZM22,73.45V48.64h3.69V73.45H22Z" transform="translate(-19.08 -7.24)"/><path fill="white" d="M46.52,32.58a1.1,1.1,0,1,0-1.47-1.64L45,31v0L34.75,40.12h0L33,41.71a1.1,1.1,0,0,0,.74,1.92,1.08,1.08,0,0,0,.73-0.28l0.31-.28h0l3.5-3.12Z" transform="translate(-19.08 -7.24)"/><path fill="white" d="M46.6,23.31A1.09,1.09,0,0,0,45,23.22l0,0h0l-6.95,6.19L33,34a1.09,1.09,0,0,0,1.27,1.76V35.8l0.19-.17h0L38,32.42h0l8.5-7.57A1.09,1.09,0,0,0,46.6,23.31Z" transform="translate(-19.08 -7.24)"/><path fill="white" d="M46.62,15.39a1.09,1.09,0,0,0-1.55-.09L45,15.36h0l-2,1.75h0l-4.17,3.71L34.22,25h0l-1.29,1.15a1.09,1.09,0,0,0-.09,1.55,1.07,1.07,0,0,0,.82.37,1.08,1.08,0,0,0,.56-0.18v0l0.15-.14h0l5.17-4.6,2.85-2.54h0l4.12-3.67A1.1,1.1,0,0,0,46.62,15.39Z" transform="translate(-19.08 -7.24)"/></svg>