<svg id="Layer_1" data-name="Layer 1" xmlns="http://www.w3.org/2000/svg" viewBox="0 0 79.97 79.94"><defs><style>.cls-1{fill:none;stroke:#000;stroke-linecap:round;stroke-miterlimit:10;stroke-width:2px;}</style></defs><title>eye_liner</title><path d="M36.7,71.18s0,0.05,0,.08a0.24,0.24,0,0,1,0,0L37,77.08a1.28,1.28,0,0,0,.23.66l-0.49,1.19a1.26,1.26,0,0,0,2.32,1l0.49-1.19a1.28,1.28,0,0,0,.63-0.3l4.31-3.87,0,0,0-.06a1.19,1.19,0,0,0,.22-0.33l0,0L64.39,26.53a1.26,1.26,0,0,0-.68-1.64L58,22.54a1.26,1.26,0,0,0-1.64.68L36.78,70.74s0,0,0,.05A1.23,1.23,0,0,0,36.7,71.18ZM43,71.94l-3.41-1.4L56.2,30.14l3.41,1.4Zm-3.54,3.74-0.15-2.54,2,0.84ZM61.59,26.74l-1,2.48-3.41-1.4,1-2.48Z" transform="translate(-8.48 -7.13)"/><path d="M63.14,33.8a1.26,1.26,0,0,0-.09,1.77l4.17,4.59a1.26,1.26,0,0,0,1.77.09L88,23a1.26,1.26,0,0,0,.31-1.41,1.25,1.25,0,0,0-.23-0.36L84,16.59a1.26,1.26,0,0,0-1.77-.09ZM85.42,21.94L68.24,37.54l-2.48-2.73L82.94,19.2Z" transform="translate(-8.48 -7.13)"/><rect x="63.72" y="9.16" width="2.47" height="16.36" transform="translate(109.95 50.95) rotate(-157.64)"/><path d="M69.17,10.34a1.23,1.23,0,0,1-2.28-.94c0.26-.63-0.42-1.55,1.59-0.62A1.2,1.2,0,0,1,69.17,10.34Z" transform="translate(-8.48 -7.13)"/><line class="cls-1" x1="56.84" y1="7.92" x2="53.51" y2="6.55"/><line class="cls-1" x1="57.98" y1="5.14" x2="54.65" y2="3.77"/><line class="cls-1" x1="59.29" y1="2.44" x2="55.8" y2="1"/><line class="cls-1" x1="55.7" y1="10.69" x2="52.37" y2="9.32"/><line class="cls-1" x1="54.56" y1="13.47" x2="51.23" y2="12.1"/><path d="M35.41,83.24c-0.83-2.26-2.09-3.69-3.63-4.13a4.32,4.32,0,0,0-3.93,1,10.77,10.77,0,0,0-2,2.22,5.68,5.68,0,0,1-2.38,2.23c-2.37.87-4.25-1.39-4.94-3.12a17,17,0,0,1-1.09-5.25,52.44,52.44,0,0,1,.27-7.55c0.08-1,.17-2,0.23-3A12.33,12.33,0,0,0,15,57a7.67,7.67,0,0,0-4.81-2.55l-0.55-.07a1.13,1.13,0,0,0-1.17,1.15,1.15,1.15,0,0,0,1.05,1.13h0a5.3,5.3,0,0,1,3.75,1.85,10.14,10.14,0,0,1,2.33,7c-0.06,1-.14,1.94-0.22,2.93a57.23,57.23,0,0,0-.3,7.51,19.46,19.46,0,0,0,1.27,6.32c1.27,3.18,4.39,5.72,7.91,4.42a7.85,7.85,0,0,0,3.44-3,9.08,9.08,0,0,1,1.57-1.78,2.19,2.19,0,0,1,1.86-.61c0.76,0.22,1.55,1.23,2.09,2.71a1.16,1.16,0,0,0,1.48.68l0.05,0A1.14,1.14,0,0,0,35.41,83.24Z" transform="translate(-8.48 -7.13)"/></svg>