<svg id="Layer_1" data-name="Layer 1" xmlns="http://www.w3.org/2000/svg" viewBox="0 0 79.94 79.91"><defs><style>.cls-1{fill:#fff;}</style></defs><title>eye_brow</title><path class="cls-1" d="M28.22,64.05v0.08h0L28.52,70a1.28,1.28,0,0,0,.23.66L28.26,71.8a1.26,1.26,0,1,0,2.32,1h0l0.49-1.19a1.28,1.28,0,0,0,.63-0.3L36,67.44h0V67.38a1.19,1.19,0,0,0,.22-0.33h0L55.91,19.4a1.26,1.26,0,0,0-.68-1.64l-5.71-2.35a1.26,1.26,0,0,0-1.64.68L28.3,63.61v0.05A1.23,1.23,0,0,0,28.22,64.05Zm6.3,0.76-3.41-1.4L47.72,23l3.41,1.4ZM31,68.55L30.83,66l2,0.84ZM53.11,19.61l-1,2.48-3.41-1.4,1-2.48Z" transform="translate(0.01 0)"/><path class="cls-1" d="M54.66,26.67a1.26,1.26,0,0,0-.09,1.77L58.74,33a1.26,1.26,0,0,0,1.77.09l19-17.25a1.25,1.25,0,0,0,.08-1.77L75.52,9.46a1.26,1.26,0,0,0-1.77-.09ZM76.94,14.81L59.76,30.41l-2.48-2.73L74.46,12.07Z" transform="translate(0.01 0)"/><rect class="cls-1" x="48.3" y="8.97" width="16.36" height="2.47" transform="translate(25.56 58.55) rotate(-67.64)"/><path class="cls-1" d="M60.69,3.21a1.23,1.23,0,1,1-2.28-.94C58.67,1.64,58,.72,60,1.65a1.2,1.2,0,0,1,.69,1.55h0Z" transform="translate(0.01 0)"/><path class="cls-1" d="M56.84,8.92a1,1,0,0,1-.38-0.08L53.13,7.47a1,1,0,0,1,.76-1.85L57.22,7A1,1,0,0,1,56.84,8.92Z" transform="translate(0.01 0)"/><path class="cls-1" d="M58,6.14a1,1,0,0,1-.38-0.08L54.27,4.69A1,1,0,0,1,55,2.85l3.33,1.37A1,1,0,0,1,58,6.14Z" transform="translate(0.01 0)"/><path class="cls-1" d="M59.29,3.44a1,1,0,0,1-.38-0.08L55.42,1.92A1,1,0,1,1,56.18.08l3.49,1.44A1,1,0,0,1,59.29,3.44Z" transform="translate(0.01 0)"/><path class="cls-1" d="M55.7,11.69a1,1,0,0,1-.38-0.08L52,10.24a1,1,0,0,1,.76-1.85l3.33,1.37A1,1,0,0,1,55.7,11.69Z" transform="translate(0.01 0)"/><path class="cls-1" d="M54.56,14.47a1,1,0,0,1-.38-0.08L50.85,13a1,1,0,0,1,.76-1.85l3.33,1.37A1,1,0,0,1,54.56,14.47Z" transform="translate(0.01 0)"/><path class="cls-1" d="M26.93,76.11C26.1,73.85,24.84,72.42,23.3,72a4.32,4.32,0,0,0-3.93,1,10.77,10.77,0,0,0-2,2.22A5.68,5.68,0,0,1,15,77.43C12.62,78.3,10.74,76,10,74.31A17,17,0,0,1,9,69.06a52.44,52.44,0,0,1,.27-7.55c0.08-1,.17-2,0.23-3a12.33,12.33,0,0,0-2.94-8.64,7.67,7.67,0,0,0-4.81-2.55l-0.55-.07A1.13,1.13,0,0,0,0,48.34s0,0,0,.06A1.15,1.15,0,0,0,1,49.53H1a5.3,5.3,0,0,1,3.75,1.85,10.14,10.14,0,0,1,2.33,7c-0.06,1-.14,1.94-0.22,2.93a57.23,57.23,0,0,0-.3,7.51,19.46,19.46,0,0,0,1.27,6.32c1.27,3.18,4.39,5.72,7.91,4.42a7.85,7.85,0,0,0,3.44-3,9.08,9.08,0,0,1,1.57-1.78,2.19,2.19,0,0,1,1.86-.61c0.76,0.22,1.55,1.23,2.09,2.71a1.16,1.16,0,0,0,1.48.68h0A1.14,1.14,0,0,0,26.93,76.11Z" transform="translate(0.01 0)"/></svg>