<svg xmlns="http://www.w3.org/2000/svg" xmlns:xlink="http://www.w3.org/1999/xlink" version="1.1" x="0px" y="0px" viewBox="0 0 91 113.75" enable-background="new 0 0 91 91" xml:space="preserve"><g><path d="M84.236,6.157H7.334c-2.674,0-4.848,2.174-4.848,4.848v0.234l6.342,16.408c0.074,1.414,0.77,2.658,1.805,3.498   c-1.094,0.889-1.811,2.229-1.811,3.746v46.247c0,2.674,2.176,4.848,4.85,4.848h64.225c2.674,0,4.85-2.174,4.85-4.848V34.892   c0-1.518-0.715-2.857-1.811-3.746c1.035-0.84,1.732-2.084,1.805-3.498l6.344-16.408v-0.234C89.084,8.331,86.91,6.157,84.236,6.157z    M80.236,81.139c0,1.289-1.049,2.338-2.34,2.338H13.672c-1.289,0-2.34-1.049-2.34-2.338V34.892c0-1.289,1.051-2.336,2.34-2.336   h64.225c1.291,0,2.34,1.047,2.34,2.336V81.139z M80.236,27.161v0.234c0,1.289-1.049,2.338-2.34,2.338H13.672   c-1.289,0-2.34-1.049-2.34-2.338v-0.234L5.004,10.796c0.107-1.191,1.111-2.129,2.33-2.129h76.902c1.219,0,2.223,0.938,2.328,2.129   L80.236,27.161z"/><path d="M73.482,34.622H18.088c-2.416,0-4.383,1.965-4.383,4.383v25.856c0,1.215,0.5,2.314,1.303,3.111   c-0.803,0.795-1.303,1.895-1.303,3.111v4.979c0,2.416,1.967,4.383,4.383,4.383h55.395c2.416,0,4.381-1.967,4.381-4.383v-4.979   c0-1.217-0.498-2.316-1.301-3.111c0.803-0.797,1.301-1.896,1.301-3.111V39.005C77.863,36.587,75.898,34.622,73.482,34.622z    M75.354,71.084v4.979c0,1.033-0.84,1.873-1.871,1.873H18.088c-1.033,0-1.873-0.84-1.873-1.873v-4.979   c0-0.979,0.758-1.775,1.715-1.857c0.053,0.004,0.104,0.016,0.158,0.016h55.395c0.055,0,0.104-0.012,0.158-0.016   C74.598,69.309,75.354,70.105,75.354,71.084z M73.482,66.701H18.088c-0.055,0-0.105,0.014-0.158,0.016   c-0.957-0.082-1.715-0.877-1.715-1.855V39.005c0-1.033,0.84-1.873,1.873-1.873h55.395c1.031,0,1.871,0.84,1.871,1.873v25.856   c0,0.979-0.756,1.773-1.713,1.855C73.586,66.715,73.537,66.701,73.482,66.701z"/><path d="M67.799,40.548H24.223c-2.674,0-4.848,2.176-4.848,4.85v13.067c0,2.674,2.174,4.852,4.848,4.852h43.576   c2.674,0,4.85-2.178,4.85-4.852V45.397C72.648,42.724,70.473,40.548,67.799,40.548z M54.014,43.06v17.747H38.953V43.06H54.014z    M21.885,58.465V45.397c0-1.289,1.049-2.338,2.338-2.338h12.221v17.747H24.223C22.934,60.807,21.885,59.756,21.885,58.465z    M70.139,58.465c0,1.291-1.051,2.342-2.34,2.342H56.523V43.06h11.275c1.289,0,2.34,1.049,2.34,2.338V58.465z"/><path d="M69.48,70.025h-2.6c-1.516,0-2.801,0.957-3.309,2.293H29.715v-0.822l-9.693-1.713v7.58l9.693-1.715V74.83h33.857   c0.51,1.336,1.795,2.291,3.309,2.291h2.6c1.957,0,3.547-1.592,3.547-3.549S71.438,70.025,69.48,70.025z M22.531,74.369v-1.592   l4.51,0.795L22.531,74.369z M69.48,74.611h-2.6c-0.572,0-1.039-0.467-1.039-1.039s0.467-1.037,1.039-1.037h2.6   c0.572,0,1.037,0.465,1.037,1.037S70.053,74.611,69.48,74.611z"/><rect x="25.225" y="51.192" transform="matrix(0.707 -0.7072 0.7072 0.707 -28.4048 36.3344)" width="8.846" height="2.511"/><rect x="42.041" y="51.192" transform="matrix(-0.707 0.7072 -0.7072 -0.707 116.4053 56.6672)" width="8.846" height="2.511"/><rect x="61.391" y="48.025" transform="matrix(-0.7071 -0.7071 0.7071 -0.7071 69.8584 133.8308)" width="2.511" height="8.844"/><rect x="26.265" y="18.753" transform="matrix(0.887 -0.4618 0.4618 0.887 -4.9062 19.9718)" width="24.165" height="2.511"/><rect x="53.8" y="6.671" transform="matrix(-0.4624 -0.8867 0.8867 -0.4624 63.8838 76.2411)" width="2.509" height="24.165"/></g><text x="0" y="106" fill="#000000" font-size="5px" font-weight="bold" font-family="'Helvetica Neue', Helvetica, Arial-Unicode, Arial, Sans-serif">Created by Korawan.M</text><text x="0" y="111" fill="#000000" font-size="5px" font-weight="bold" font-family="'Helvetica Neue', Helvetica, Arial-Unicode, Arial, Sans-serif">from the Noun Project</text></svg>