<svg id="Layer_1" data-name="Layer 1" xmlns="http://www.w3.org/2000/svg" viewBox="0 0 86.6 79.83"><title>eye_shadow</title><path d="M84.24,6.16H7.33A4.85,4.85,0,0,0,2.49,11v0.23L8.83,27.65a4.83,4.83,0,0,0,1.81,3.5,4.82,4.82,0,0,0-1.81,3.75V81.14A4.85,4.85,0,0,0,13.67,86H77.9a4.85,4.85,0,0,0,4.85-4.85V34.89a4.81,4.81,0,0,0-1.81-3.75,4.83,4.83,0,0,0,1.81-3.5l6.34-16.41V11A4.85,4.85,0,0,0,84.24,6.16Zm-4,75a2.34,2.34,0,0,1-2.34,2.34H13.67a2.34,2.34,0,0,1-2.34-2.34V34.89a2.34,2.34,0,0,1,2.34-2.34H77.9a2.34,2.34,0,0,1,2.34,2.34V81.14h0Zm0-54v0.23a2.34,2.34,0,0,1-2.34,2.34H13.67a2.34,2.34,0,0,1-2.34-2.34V27.16L5,10.8A2.34,2.34,0,0,1,7.33,8.67h76.9a2.34,2.34,0,0,1,2.33,2.13Z" transform="translate(-2.49 -6.16)"/><path d="M73.48,34.62H18.09A4.39,4.39,0,0,0,13.7,39V64.86A4.37,4.37,0,0,0,15,68a4.37,4.37,0,0,0-1.3,3.11v5a4.39,4.39,0,0,0,4.38,4.38h55.4a4.39,4.39,0,0,0,4.38-4.38v-5A4.36,4.36,0,0,0,76.56,68a4.37,4.37,0,0,0,1.3-3.11V39A4.39,4.39,0,0,0,73.48,34.62Zm1.87,36.46v5a1.87,1.87,0,0,1-1.87,1.87H18.09a1.87,1.87,0,0,1-1.87-1.87v-5a1.87,1.87,0,0,1,1.72-1.86l0.16,0h55.4l0.16,0A1.87,1.87,0,0,1,75.35,71.08ZM73.48,66.7H18.09l-0.16,0a1.87,1.87,0,0,1-1.72-1.86V39a1.87,1.87,0,0,1,1.87-1.87h55.4A1.87,1.87,0,0,1,75.35,39V64.86a1.87,1.87,0,0,1-1.71,1.86Z" transform="translate(-2.49 -6.16)"/><path d="M67.8,40.55H24.22a4.85,4.85,0,0,0-4.85,4.85V58.47a4.86,4.86,0,0,0,4.85,4.85H67.8a4.86,4.86,0,0,0,4.85-4.85V45.4A4.86,4.86,0,0,0,67.8,40.55ZM54,43.06V60.81H39V43.06H54ZM21.89,58.47V45.4a2.34,2.34,0,0,1,2.34-2.34H36.44V60.81H24.22A2.34,2.34,0,0,1,21.89,58.47Zm48.25,0a2.34,2.34,0,0,1-2.34,2.34H56.52V43.06H67.8a2.34,2.34,0,0,1,2.34,2.34V58.47h0Z" transform="translate(-2.49 -6.16)"/><path d="M69.48,70h-2.6a3.54,3.54,0,0,0-3.31,2.29H29.72V71.5L20,69.78v7.58l9.69-1.71V74.83H63.57a3.55,3.55,0,0,0,3.31,2.29h2.6A3.55,3.55,0,0,0,69.48,70ZM22.53,74.37V72.78L27,73.57Zm46.95,0.24h-2.6a1,1,0,1,1,0-2.08h2.6A1,1,0,0,1,69.48,74.61Z" transform="translate(-2.49 -6.16)"/><rect x="25.22" y="51.19" width="8.85" height="2.51" transform="translate(-30.89 30.18) rotate(-45.01)"/><rect x="42.04" y="51.19" width="8.85" height="2.51" transform="translate(-25.96 42.07) rotate(-45.01)"/><rect x="58.22" y="51.19" width="8.84" height="2.51" transform="translate(-21.22 53.5) rotate(-45)"/><rect x="26.27" y="18.75" width="24.17" height="2.51" transform="translate(-7.39 13.81) rotate(-27.5)"/><rect x="42.97" y="17.5" width="24.17" height="2.51" transform="translate(-4.92 21.43) rotate(-27.54)"/></svg>