<svg xmlns="http://www.w3.org/2000/svg" xmlns:xlink="http://www.w3.org/1999/xlink" version="1.1" x="0px" y="0px" viewBox="0 0 91 113.75" enable-background="new 0 0 91 91" xml:space="preserve"><g><path d="M44.266,18.26c-0.008-0.023-0.014-0.051-0.023-0.074c-0.006-0.012-0.008-0.023-0.012-0.035l-2.51-5.219   c-0.105-0.217-0.27-0.395-0.467-0.52v-1.289c0-0.693-0.563-1.254-1.256-1.254s-1.254,0.561-1.254,1.254v1.289   c-0.199,0.125-0.363,0.303-0.469,0.52l-2.51,5.219c-0.004,0.012-0.006,0.025-0.012,0.035c-0.01,0.023-0.014,0.049-0.023,0.072   c-0.047,0.125-0.072,0.254-0.076,0.383c-0.002,0.02-0.012,0.035-0.012,0.055v69.818c0,0.693,0.561,1.256,1.254,1.256H43.1   c0.693,0,1.254-0.563,1.254-1.256V18.696c0-0.02-0.01-0.035-0.01-0.055C44.338,18.512,44.313,18.383,44.266,18.26z M38.153,19.95   h3.691v62.117h-3.691V19.95z M39.999,15.143l1.104,2.297h-2.207L39.999,15.143z M38.153,87.258v-2.682h3.691v2.682H38.153z"/><path d="M24.37,59.068c-0.234-0.654-0.949-0.992-1.604-0.762l-5.84,2.082c-0.652,0.232-0.994,0.949-0.762,1.604l8.633,24.227   c0.113,0.314,0.346,0.57,0.645,0.713c0.17,0.08,0.355,0.121,0.539,0.121c0.143,0,0.285-0.025,0.422-0.074l5.84-2.082   c0.654-0.232,0.994-0.951,0.762-1.604L24.37,59.068z M26.741,84.193L18.95,62.332l3.477-1.24l7.793,21.861L26.741,84.193z"/><path d="M75.303,38.227c-0.771-0.615-2.148-1.227-4.35-0.619c-1.105,0.303-2.039,0.865-2.943,1.408   c-1.162,0.697-2.131,1.291-3.32,1.258c-2.734-0.102-3.666-3.174-3.625-5.215c0.09-4.619,2.371-9.027,4.576-13.289   c0.51-0.984,1.014-1.955,1.484-2.92c1.492-3.049,1.779-6.959,0.73-9.961c-0.777-2.229-2.252-3.912-4.26-4.869   c-5.795-2.762-16.729-1.811-21.224,3.234c-0.463,0.518-0.416,1.311,0.102,1.771c0.516,0.461,1.309,0.416,1.771-0.102   c3.656-4.1,13.39-4.961,18.271-2.639c1.41,0.672,2.41,1.826,2.971,3.43c0.953,2.73,0.377,6.002-0.615,8.031   c-0.465,0.947-0.959,1.904-1.459,2.869c-2.338,4.518-4.756,9.189-4.859,14.395c-0.074,3.748,1.979,7.621,6.043,7.771   c1.896,0.055,3.391-0.824,4.707-1.613c0.795-0.477,1.545-0.928,2.318-1.143c0.945-0.258,1.658-0.203,2.115,0.162   c0.672,0.537,1.027,1.887,0.947,3.611c-0.031,0.691,0.504,1.279,1.195,1.31c0.02,0.002,0.039,0.002,0.061,0.002   c0.666,0,1.221-0.525,1.252-1.197C77.311,41.278,76.658,39.309,75.303,38.227z"/></g><text x="0" y="106" fill="#000000" font-size="5px" font-weight="bold" font-family="'Helvetica Neue', Helvetica, Arial-Unicode, Arial, Sans-serif">Created by Korawan.M</text><text x="0" y="111" fill="#000000" font-size="5px" font-weight="bold" font-family="'Helvetica Neue', Helvetica, Arial-Unicode, Arial, Sans-serif">from the Noun Project</text></svg>