<svg id="Layer_1" data-name="Layer 1" xmlns="http://www.w3.org/2000/svg" viewBox="0 0 73.84 89.5"><title>foundation</title><path class="white" d="M9.18,26.34V90.5H35.61V1H9.18V26.34ZM33.09,43h-12V75h12V88H11.69V28.85H33.09V43Zm0,2.51v27H23.65v-27h9.45ZM18.76,9.92H26v8.46H18.76V9.92Zm9.77,11h0.35v5.45h-13V20.89H28.53ZM11.69,3.52H33.09V26.34h-1.7v-8H28.53V9.92h3.13V7.41H16.25v11H13.39v8h-1.7V3.52Z" transform="translate(-9.18 -1.01)"/><path class="white" d="M40.25,90H83V50.56H40.25V90Zm40.26-9.39H59.72V69H80.51V80.63Zm0-27.56v7.47h-5.3v2.51h5.3v3.48H57.21V83.14h23.3v4.38H42.76V63.05h29V60.54h-29V53.07H80.51Z" transform="translate(-9.18 -1.01)"/></svg>