<svg xmlns="http://www.w3.org/2000/svg" xmlns:xlink="http://www.w3.org/1999/xlink" version="1.1" x="0px" y="0px" viewBox="0 0 91 113.75" enable-background="new 0 0 91 91" xml:space="preserve"><g><path d="M9.176,26.34v2.51v61.654h26.43V28.85v-2.51V1.008H9.176V26.34z M33.094,42.979H21.137v32.007h11.957v13.008H11.686V28.85   h1.701h18.006h1.701V42.979z M33.094,45.488v26.988h-9.447V45.488H33.094z M18.76,9.92h7.258v8.457H18.76V9.92z M28.528,20.887   h0.355v5.453H15.897v-5.453h0.354H28.528z M11.686,3.518h21.408V26.34h-1.701v-7.963h-2.865V9.92h3.127v-2.51h-3.127H17.506H16.25   v10.967h-2.863v7.963h-1.701V3.518z"/><path d="M40.247,90.023H83.02v-6.885V66.527V50.561H40.247V90.023z M80.508,80.629H59.721V69.037h20.787V80.629z M80.508,53.07   v7.471h-5.301v2.51h5.301v3.477H57.211v16.611h23.297v4.375H42.756V63.051H71.73v-2.51H42.756V53.07H80.508z"/></g><text x="0" y="106" fill="#000000" font-size="5px" font-weight="bold" font-family="'Helvetica Neue', Helvetica, Arial-Unicode, Arial, Sans-serif">Created by Korawan.M</text><text x="0" y="111" fill="#000000" font-size="5px" font-weight="bold" font-family="'Helvetica Neue', Helvetica, Arial-Unicode, Arial, Sans-serif">from the Noun Project</text></svg>