<svg id="Layer_1" data-name="Layer 1" xmlns="http://www.w3.org/2000/svg" viewBox="0 0 61.11 87.27"><title>eye_liner</title><path fill="white" d="M44.27,18.26l0-.07v0l-2.51-5.22a1.28,1.28,0,0,0-.47-0.52V11.12a1.26,1.26,0,0,0-2.51,0v1.29a1.28,1.28,0,0,0-.47.52l-2.51,5.22v0l0,0.07a1.19,1.19,0,0,0-.08.38,0.54,0.54,0,0,0,0,.06V88.51a1.26,1.26,0,0,0,1.25,1.26h6.2a1.26,1.26,0,0,0,1.25-1.26V18.7s0,0,0-.06A1.23,1.23,0,0,0,44.27,18.26ZM38.15,20h3.69V82.07H38.15V20ZM40,15.14l1.1,2.3H38.9ZM38.15,87.26V84.58h3.69v2.68H38.15Z" transform="translate(-16.09 -2.5)"/><path fill="white" d="M24.37,59.07a1.26,1.26,0,0,0-1.6-.76l-5.84,2.08a1.26,1.26,0,0,0-.76,1.6L24.8,86.22a1.26,1.26,0,0,0,1.18.83A1.25,1.25,0,0,0,26.4,87l5.84-2.08a1.26,1.26,0,0,0,.76-1.6Zm2.37,25.13L19,62.33l3.48-1.24L30.22,83Z" transform="translate(-16.09 -2.5)"/><path fill="white" d="M75.3,38.23A4.64,4.64,0,0,0,71,37.61,11.75,11.75,0,0,0,68,39a6.19,6.19,0,0,1-3.32,1.26C62,40.17,61,37.1,61.07,35.06c0.09-4.62,2.37-9,4.58-13.29,0.51-1,1-2,1.48-2.92a13.61,13.61,0,0,0,.73-10A8.24,8.24,0,0,0,63.6,4C57.8,1.26,46.87,2.21,42.37,7.25a1.25,1.25,0,0,0,1.87,1.67c3.66-4.1,13.39-5,18.27-2.64a5.71,5.71,0,0,1,3,3.43,11.2,11.2,0,0,1-.61,8c-0.46.95-1,1.9-1.46,2.87-2.34,4.52-4.76,9.19-4.86,14.4-0.07,3.75,2,7.62,6,7.77a8.54,8.54,0,0,0,4.71-1.61A9.91,9.91,0,0,1,71.62,40a2.35,2.35,0,0,1,2.11.16c0.67,0.54,1,1.89.95,3.61a1.25,1.25,0,0,0,1.19,1.31h0.06a1.26,1.26,0,0,0,1.25-1.2C77.31,41.28,76.66,39.31,75.3,38.23Z" transform="translate(-16.09 -2.5)"/></svg>