<svg id="Layer_1" data-name="Layer 1" xmlns="http://www.w3.org/2000/svg" viewBox="0 0 60.62 86.97"><title>lipstick</title><path class="white" d="M18.3,89.26H40.09a2.36,2.36,0,0,0,2.35-2.36V49.44a2.36,2.36,0,0,0-2.35-2.35,1.24,1.24,0,0,0-.47.09l-0.44.18v-10a1.26,1.26,0,0,0-1.26-1.26H37.51V3.54a1.26,1.26,0,0,0-1.9-1.08L21.49,11A1.26,1.26,0,0,0,20.88,12v24.1H20.47a1.26,1.26,0,0,0-1.26,1.26v18l-1.2.48a2.36,2.36,0,0,0-2.07,2.34V86.9A2.36,2.36,0,0,0,18.3,89.26ZM34,6.36c-2.68,5.43-7.07,5.83-9.34,5.61Zm-10.62,8a12.39,12.39,0,0,0,2.19.19A11.44,11.44,0,0,0,31,13.21,11.6,11.6,0,0,0,35,9.6V36.14H23.39V14.32ZM21.72,38.65H36.67v9.68L23.81,53.56l-2.09.84V38.65ZM18.45,58.39a1.17,1.17,0,0,0,.31-0.08l2.12-.85h0.05l3.37-1.37,15.62-6.31v37H18.45V58.39Z" transform="translate(-15.94 -2.29)"/><rect class="white" x="14.31" y="13.66" width="2.51" height="8.65"/><path class="white" d="M30.63,27.79a1.24,1.24,0,0,0,0,1.78,1.26,1.26,0,0,0,.88.36,1.29,1.29,0,0,0,.89-0.36,1.25,1.25,0,0,0,.37-0.89,1.21,1.21,0,0,0-.37-0.88A1.28,1.28,0,0,0,30.63,27.79Z" transform="translate(-15.94 -2.29)"/><rect class="white" x="19.78" y="68.21" width="2.51" height="13.19"/><path class="white" d="M36.09,66a1.31,1.31,0,0,0-.37.89A1.27,1.27,0,0,0,37,68.18a1.28,1.28,0,0,0,1.25-1.25A1.25,1.25,0,0,0,36.09,66Z" transform="translate(-15.94 -2.29)"/><path class="white" d="M76.56,86.9V29.64a2.36,2.36,0,0,0-2.35-2.35H52.41a2.36,2.36,0,0,0-2.35,2.35V86.9a2.36,2.36,0,0,0,2.35,2.36h21.8A2.36,2.36,0,0,0,76.56,86.9ZM74.05,29.8V72.11H69.49v2.51h4.56v4.51H52.57V74.62H66.35V72.11H52.57V29.8H74.05ZM52.57,86.75V81.64H74.05v5.11H52.57Z" transform="translate(-15.94 -2.29)"/></svg>