<svg xmlns="http://www.w3.org/2000/svg" xmlns:xlink="http://www.w3.org/1999/xlink" version="1.1" x="0px" y="0px" viewBox="0 0 91 113.75" enable-background="new 0 0 91 91" xml:space="preserve"><g><path d="M18.299,89.257h21.793c1.299,0,2.355-1.057,2.355-2.355V49.443c0-1.299-1.057-2.355-2.355-2.355   c-0.16,0-0.32,0.031-0.469,0.092l-0.445,0.18v-9.967c0-0.694-0.563-1.255-1.256-1.255H37.51V3.543c0-0.452-0.244-0.87-0.637-1.092   c-0.395-0.226-0.879-0.217-1.266,0.016l-14.119,8.491c-0.377,0.228-0.607,0.636-0.607,1.076v24.103h-0.412   c-0.693,0-1.256,0.561-1.256,1.255v18.029l-1.201,0.484c-1.164,0.143-2.068,1.137-2.068,2.338v28.658   C15.943,88.2,17,89.257,18.299,89.257z M34.012,6.358c-2.682,5.426-7.066,5.827-9.342,5.615L34.012,6.358z M23.391,14.324   c0.545,0.099,1.301,0.192,2.193,0.192c1.535,0,3.465-0.279,5.391-1.303c1.574-0.836,2.916-2.05,4.025-3.614v26.538H23.391V14.324z    M21.723,38.647h0.412h14.121h0.41v9.683l-12.855,5.235l-2.088,0.842V38.647z M18.453,58.388c0.107-0.012,0.215-0.039,0.314-0.08   l2.121-0.855c0.018-0.008,0.035-0.004,0.053-0.012l3.371-1.371l15.625-6.31v36.987H18.453V58.388z"/><rect x="30.258" y="15.949" width="2.51" height="8.646"/><path d="M30.629,27.791c-0.24,0.239-0.377,0.565-0.377,0.892c0,0.327,0.137,0.652,0.377,0.891c0.225,0.227,0.551,0.364,0.877,0.364   c0.34,0,0.654-0.138,0.891-0.364c0.24-0.238,0.365-0.563,0.365-0.891c0-0.326-0.125-0.652-0.365-0.878   C31.934,27.326,31.08,27.326,30.629,27.791z"/><rect x="35.723" y="70.493" width="2.51" height="13.191"/><path d="M36.088,66.032c-0.227,0.236-0.365,0.563-0.365,0.891c0,0.326,0.139,0.652,0.365,0.877   c0.238,0.238,0.553,0.377,0.891,0.377c0.326,0,0.652-0.139,0.879-0.377c0.238-0.225,0.375-0.551,0.375-0.877   c0-0.328-0.137-0.654-0.363-0.891C37.393,65.567,36.551,65.567,36.088,66.032z"/><path d="M76.561,86.901V29.644c0-1.298-1.057-2.354-2.354-2.354H52.412c-1.299,0-2.354,1.057-2.354,2.354v57.257   c0,1.299,1.055,2.355,2.354,2.355h21.795C75.504,89.257,76.561,88.2,76.561,86.901z M74.051,29.799v42.313h-4.559v2.51h4.559v4.508   H52.568v-4.508h13.779v-2.51H52.568V29.799H74.051z M52.568,86.747V81.64h21.482v5.107H52.568z"/></g><text x="0" y="106" fill="#000000" font-size="5px" font-weight="bold" font-family="'Helvetica Neue', Helvetica, Arial-Unicode, Arial, Sans-serif">Created by Korawan.M</text><text x="0" y="111" fill="#000000" font-size="5px" font-weight="bold" font-family="'Helvetica Neue', Helvetica, Arial-Unicode, Arial, Sans-serif">from the Noun Project</text></svg>