<svg id="Layer_1" data-name="Layer 1" xmlns="http://www.w3.org/2000/svg" viewBox="0 0 55.39 85.81"><title>mascara</title><path class="white" d="M71.83,54.34H64.7V34.9h3.76a1.26,1.26,0,0,0,0-2.51H64.7V30H71a1.26,1.26,0,0,0,0-2.51H64.7V25.14h7.52a1.26,1.26,0,1,0,0-2.51H64.7V20.25h7.52a1.26,1.26,0,1,0,0-2.51H64.7V15.37H71a1.26,1.26,0,0,0,0-2.51H64.7V10.58s0-.06,0-0.1h3.78a1.26,1.26,0,0,0,0-2.51h-10a1.26,1.26,0,1,0,0,2.51h3.78s0,0.06,0,.1v2.28H55.91a1.26,1.26,0,0,0,0,2.51h6.27v2.37H54.66a1.26,1.26,0,1,0,0,2.51h7.53v2.37H54.66a1.26,1.26,0,1,0,0,2.51h7.53v2.38H55.91a1.26,1.26,0,0,0,0,2.51h6.27v2.37H58.43a1.26,1.26,0,1,0,0,2.51h3.76V54.35H55.05A2.36,2.36,0,0,0,52.7,56.7V86.35a2.36,2.36,0,0,0,2.35,2.36H71.83a2.36,2.36,0,0,0,2.36-2.36V56.7A2.35,2.35,0,0,0,71.83,54.34Zm-0.15,2.51v14.7H69.62v2.51h2.05v4.51H55.21V74.07H66.48V71.56H55.21V56.85H71.67ZM55.21,86.19V81.08H71.67v5.11H55.21Z" transform="translate(-18.79 -2.89)"/><path class="white" d="M39.17,2.89h-18a2.36,2.36,0,0,0-2.35,2.35v81.1a2.36,2.36,0,0,0,2.35,2.36h18a2.36,2.36,0,0,0,2.35-2.36V5.24A2.36,2.36,0,0,0,39.17,2.89ZM39,5.4V32.12H37v2.51h2V40.4H21.3V34.63H33.82V32.12H21.3V5.4H39ZM21.3,86.19V42.9H39V86.19H21.3Z" transform="translate(-18.79 -2.89)"/></svg>