<svg xmlns="http://www.w3.org/2000/svg" xmlns:xlink="http://www.w3.org/1999/xlink" version="1.1" x="0px" y="0px" viewBox="0 0 91 113.75" enable-background="new 0 0 91 91" xml:space="preserve"><g><path d="M71.827,54.344h-7.131V34.903h3.758c0.693,0,1.254-0.563,1.254-1.256s-0.561-1.254-1.254-1.254h-3.758V30.02h6.268   c0.693,0,1.254-0.563,1.254-1.256s-0.561-1.254-1.254-1.254h-6.268v-2.375h7.521c0.695,0,1.256-0.563,1.256-1.256   s-0.561-1.254-1.256-1.254h-7.521v-2.373h7.521c0.695,0,1.256-0.563,1.256-1.256s-0.561-1.254-1.256-1.254h-7.521V15.37h6.268   c0.693,0,1.254-0.563,1.254-1.256s-0.561-1.254-1.254-1.254h-6.268v-2.277c0-0.035-0.018-0.064-0.02-0.098h3.777   c0.693,0,1.254-0.563,1.254-1.256s-0.561-1.256-1.254-1.256H58.427c-0.695,0-1.256,0.563-1.256,1.256s0.561,1.256,1.256,1.256   h3.779c-0.002,0.033-0.02,0.063-0.02,0.098v2.277h-6.271c-0.693,0-1.254,0.561-1.254,1.254s0.561,1.256,1.254,1.256h6.271v2.373   h-7.525c-0.693,0-1.256,0.561-1.256,1.254s0.563,1.256,1.256,1.256h7.525v2.373h-7.525c-0.693,0-1.256,0.561-1.256,1.254   s0.563,1.256,1.256,1.256h7.525v2.375h-6.271c-0.693,0-1.254,0.561-1.254,1.254s0.561,1.256,1.254,1.256h6.271v2.373h-3.76   c-0.695,0-1.256,0.561-1.256,1.254s0.561,1.256,1.256,1.256h3.76v19.441h-7.133c-1.299,0-2.355,1.057-2.355,2.354v29.646   c0,1.299,1.057,2.355,2.355,2.355h16.773c1.299,0,2.355-1.057,2.355-2.355V56.697C74.183,55.4,73.126,54.344,71.827,54.344z    M71.673,56.854v14.703h-2.051v2.51h2.051v4.508H55.208v-4.508h11.27v-2.51h-11.27V56.854H71.673z M55.208,86.189v-5.105h16.465   v5.105H55.208z"/><path d="M39.173,2.887H21.142c-1.297,0-2.354,1.057-2.354,2.354v81.103c0,1.299,1.057,2.355,2.354,2.355h18.031   c1.297,0,2.354-1.057,2.354-2.355V5.241C41.526,3.944,40.47,2.887,39.173,2.887z M39.017,5.397v26.727h-2.049v2.51h2.049v5.762   H21.298v-5.762h12.525v-2.51H21.298V5.397H39.017z M21.298,86.189V42.905h17.719v43.285H21.298z"/></g><text x="0" y="106" fill="#000000" font-size="5px" font-weight="bold" font-family="'Helvetica Neue', Helvetica, Arial-Unicode, Arial, Sans-serif">Created by Korawan.M</text><text x="0" y="111" fill="#000000" font-size="5px" font-weight="bold" font-family="'Helvetica Neue', Helvetica, Arial-Unicode, Arial, Sans-serif">from the Noun Project</text></svg>