<svg xmlns="http://www.w3.org/2000/svg" xmlns:xlink="http://www.w3.org/1999/xlink" version="1.1" x="0px" y="0px" viewBox="0 0 91 113.75" enable-background="new 0 0 91 91" xml:space="preserve"><g><path d="M45.087,47.869L39.198,2.262H28.163l-5.885,45.607c-4.471,4.188-7.094,10.547-7.094,17.443v20.08h2.344   c0.027,2.656,2.732,4.811,6.059,4.811h20.182c3.324,0,6.029-2.154,6.057-4.811h2.352v-20.08   C52.177,58.418,49.556,52.059,45.087,47.869z M30.37,4.772h6.623l5.352,41.474H25.021L30.37,4.772z M43.769,87.693H23.587   c-1.904,0-3.512-1.051-3.547-2.301h27.273C47.278,86.643,45.673,87.693,43.769,87.693z M49.667,82.883H17.694v-17.57   c0-6.752,2.754-12.906,7.385-16.557h17.205c4.631,3.65,7.383,9.805,7.383,16.557V82.883z"/><path d="M33.681,57.832c-5.84,0-10.594,4.752-10.594,10.592c0,5.842,4.754,10.596,10.594,10.596   c5.842,0,10.594-4.754,10.594-10.596C44.274,62.584,39.522,57.832,33.681,57.832z M33.681,76.51c-4.457,0-8.084-3.627-8.084-8.086   c0-4.457,3.627-8.082,8.084-8.082s8.084,3.625,8.084,8.082C41.765,72.883,38.138,76.51,33.681,76.51z"/><path d="M41.015,51.443l-1.504,2.008c1.725,1.295,3.158,3.123,4.143,5.289l2.285-1.041C44.778,55.152,43.077,52.988,41.015,51.443z   "/><rect x="35.216" y="13.07" transform="matrix(0.9923 -0.1237 0.1237 0.9923 -2.5776 4.6907)" width="2.51" height="20.051"/><path d="M39.302,37.735c-0.465-0.465-1.293-0.465-1.77,0.012c-0.24,0.227-0.365,0.553-0.365,0.879c0,0.338,0.125,0.652,0.365,0.891   c0.238,0.238,0.551,0.365,0.891,0.365c0.326,0,0.652-0.127,0.891-0.365c0.227-0.238,0.365-0.553,0.365-0.891   C39.679,38.299,39.54,37.985,39.302,37.735z"/><rect x="68.504" y="60.12" transform="matrix(0.9923 0.1237 -0.1237 0.9923 9.2164 -8.0933)" width="2.51" height="20.048"/><path d="M71.704,55.857c0.328,0,0.654-0.125,0.893-0.363s0.363-0.564,0.363-0.891s-0.125-0.652-0.363-0.891   c-0.477-0.465-1.307-0.465-1.783,0c-0.225,0.238-0.363,0.564-0.363,0.891s0.139,0.652,0.377,0.891   C71.054,55.732,71.38,55.857,71.704,55.857z"/><path d="M45.938,61.982c0.328,0,0.654-0.125,0.893-0.363s0.363-0.564,0.363-0.891s-0.125-0.652-0.363-0.891   c-0.477-0.465-1.307-0.465-1.783,0c-0.225,0.238-0.363,0.564-0.363,0.891s0.139,0.652,0.377,0.891   C45.287,61.857,45.613,61.982,45.938,61.982z"/><path d="M68.226,16.108h0.82l1.715-9.695h-7.58l1.713,9.695h0.822v28.377H55.452l6,46.49h11.035l6.002-46.49H68.226V16.108z    M67.767,8.922l-0.797,4.51l-0.795-4.51H67.767z M70.28,88.465h-6.623l-5.35-41.469h17.326L70.28,88.465z"/></g><text x="0" y="106" fill="#000000" font-size="5px" font-weight="bold" font-family="'Helvetica Neue', Helvetica, Arial-Unicode, Arial, Sans-serif">Created by Korawan.M</text><text x="0" y="111" fill="#000000" font-size="5px" font-weight="bold" font-family="'Helvetica Neue', Helvetica, Arial-Unicode, Arial, Sans-serif">from the Noun Project</text></svg>