<svg id="Layer_1" data-name="Layer 1" xmlns="http://www.w3.org/2000/svg" viewBox="0 0 63.3 88.71"><title>nailpolish</title><path d="M45.09,47.87L39.2,2.26h-11L22.28,47.87a23.84,23.84,0,0,0-7.09,17.44V85.39h2.34c0,2.66,2.73,4.81,6.06,4.81H43.77c3.32,0,6-2.15,6.06-4.81h2.35V65.31A23.86,23.86,0,0,0,45.09,47.87ZM30.37,4.77H37l5.35,41.47H25Zm13.4,82.92H23.59c-1.9,0-3.51-1.05-3.55-2.3H47.31C47.28,86.64,45.67,87.69,43.77,87.69Zm5.9-4.81h-32V65.31c0-6.75,2.75-12.91,7.39-16.56h17.2c4.63,3.65,7.38,9.81,7.38,16.56V82.88Z" transform="translate(-15.18 -2.26)"/><path d="M33.68,57.83A10.59,10.59,0,1,0,44.28,68.42,10.61,10.61,0,0,0,33.68,57.83Zm0,18.68a8.08,8.08,0,1,1,8.08-8.09A8.09,8.09,0,0,1,33.68,76.51Z" transform="translate(-15.18 -2.26)"/><path d="M41,51.44l-1.5,2a13.64,13.64,0,0,1,4.14,5.29l2.28-1A16.15,16.15,0,0,0,41,51.44Z" transform="translate(-15.18 -2.26)"/><rect x="35.21" y="13.07" width="2.51" height="20.05" transform="translate(-17.76 2.43) rotate(-7.11)"/><path d="M39.3,37.74a1.29,1.29,0,0,0-1.77,0,1.21,1.21,0,0,0-.37.88,1.25,1.25,0,0,0,1.26,1.26,1.27,1.27,0,0,0,.89-0.37A1.26,1.26,0,0,0,39.3,37.74Z" transform="translate(-15.18 -2.26)"/><rect x="59.74" y="68.88" width="20.05" height="2.51" transform="translate(-23.65 128.43) rotate(-82.89)"/><path d="M71.7,55.86a1.26,1.26,0,0,0,.89-2.14,1.25,1.25,0,0,0-2.15.89,1.28,1.28,0,0,0,.38.89A1.21,1.21,0,0,0,71.7,55.86Z" transform="translate(-15.18 -2.26)"/><path d="M45.94,62a1.26,1.26,0,0,0,.89-2.14,1.25,1.25,0,0,0-2.15.89,1.28,1.28,0,0,0,.38.89A1.21,1.21,0,0,0,45.94,62Z" transform="translate(-15.18 -2.26)"/><path d="M68.23,16.11H69l1.71-9.69H63.18l1.71,9.69h0.82V44.49H55.45l6,46.49h11l6-46.49H68.23V16.11ZM67.77,8.92L67,13.43,66.18,8.92h1.59Zm2.51,79.54H63.66L58.31,47H75.63Z" transform="translate(-15.18 -2.26)"/></svg>